# File produced by Open Asset Import Library (http://www.assimp.sf.net)
# (assimp v3.1.267422042)

mtllib Untitled.mtl

# vertex positions
v -0.255935 0.973666 0.505403
v -0.369948 0.795183 0.568778
v -0.363256 0.922932 0.723030
v -0.251799 1.058172 0.614857
v -0.369948 0.574566 0.647115
v -0.363256 0.755767 0.856740
v -0.255935 0.396083 0.710490
v -0.251799 0.620528 0.964914
v -0.071457 0.327908 0.734698
v -0.071457 0.568871 1.006232
v 0.113022 0.396083 0.710490
v 0.108886 0.620528 0.964914
v 0.227035 0.574566 0.647115
v 0.220343 0.755767 0.856740
v 0.227035 0.795183 0.568778
v 0.220343 0.922932 0.723030
v 0.113022 0.973666 0.505403
v 0.108886 1.058172 0.614857
v -0.071457 1.041841 0.481196
v -0.071457 1.109828 0.573538
v -0.226426 1.031132 0.642479
v -0.322203 0.916184 0.736445
v -0.272053 1.117917 0.862596
v -0.195432 1.167602 0.765001
v -0.322203 0.774100 0.852594
v -0.272053 1.056504 0.983230
v -0.226426 0.659152 0.946560
v -0.195432 1.006819 1.080825
v -0.071457 0.615246 0.982452
v -0.071457 0.987841 1.118103
v 0.083513 0.659152 0.946560
v 0.052519 1.006819 1.080825
v 0.179290 0.774100 0.852594
v 0.129140 1.056504 0.983230
v 0.179290 0.916184 0.736445
v 0.129140 1.117917 0.862596
v 0.083513 1.031132 0.642479
v 0.052519 1.167602 0.765001
v -0.071457 1.075038 0.606587
v -0.071457 1.186579 0.727723
v -0.221904 1.371715 0.919066
v -0.164438 1.371715 0.839971
v -0.221904 1.371715 1.016833
v -0.164438 1.371715 1.095928
v -0.071457 1.371715 1.126140
v 0.021525 1.371715 1.095928
v 0.078991 1.371715 1.016833
v 0.078991 1.371715 0.919066
v 0.021525 1.371715 0.839971
v -0.071457 1.371715 0.809760
v -0.171755 1.640866 0.892754
v -0.133444 1.616024 0.843957
v -0.171755 1.671572 0.953071
v -0.133444 1.696415 1.001869
v -0.071457 1.705904 1.020508
v -0.009469 1.696415 1.001869
v 0.028842 1.671572 0.953071
v 0.028842 1.640866 0.892754
v -0.009469 1.616024 0.843957
v -0.071457 1.606535 0.825318
v -0.121606 1.884079 0.782905
v -0.102450 1.861090 0.764111
v -0.121606 1.912496 0.806134
v -0.102450 1.935486 0.824927
v -0.071457 1.944266 0.832106
v -0.040463 1.935486 0.824927
v -0.021307 1.912496 0.806134
v -0.021307 1.884079 0.782905
v -0.040463 1.861090 0.764111
v -0.071457 1.852308 0.756933
v -0.071457 2.061814 0.601921
v -0.229980 0.930955 0.000000
v -0.327953 0.776855 0.569095
v -0.327953 0.586377 0.634747
v -0.229980 0.432277 0.687860
v -0.071457 0.373416 0.708148
v 0.087067 0.432277 0.687860
v 0.185040 0.586377 0.634747
v 0.185040 0.776855 0.569095
v 0.087067 0.930955 0.000000
v -0.071457 0.989815 0.000000
v -0.255935 0.973666 -0.505403
v -0.251799 1.058172 -0.614857
v -0.363256 0.922932 -0.723030
v -0.369948 0.795183 -0.568778
v -0.363256 0.755767 -0.856740
v -0.369948 0.574566 -0.647115
v -0.251799 0.620528 -0.964914
v -0.255935 0.396083 -0.710490
v -0.071457 0.568871 -1.006232
v -0.071457 0.327908 -0.734698
v 0.108886 0.620528 -0.964914
v 0.113022 0.396083 -0.710490
v 0.220343 0.755767 -0.856740
v 0.227035 0.574566 -0.647115
v 0.220343 0.922932 -0.723030
v 0.227035 0.795183 -0.568778
v 0.108886 1.058172 -0.614857
v 0.113022 0.973666 -0.505403
v -0.071457 1.109828 -0.573538
v -0.071457 1.041841 -0.481195
v -0.226426 1.031132 -0.642479
v -0.195432 1.167602 -0.765001
v -0.272053 1.117917 -0.862596
v -0.322203 0.916184 -0.736445
v -0.272053 1.056504 -0.983230
v -0.322203 0.774100 -0.852594
v -0.195432 1.006819 -1.080825
v -0.226426 0.659152 -0.946560
v -0.071457 0.987841 -1.118103
v -0.071457 0.615246 -0.982452
v 0.052519 1.006819 -1.080825
v 0.083513 0.659152 -0.946560
v 0.129140 1.056504 -0.983230
v 0.179290 0.774100 -0.852594
v 0.129140 1.117917 -0.862596
v 0.179290 0.916184 -0.736445
v 0.052519 1.167602 -0.765001
v 0.083513 1.031132 -0.642479
v -0.071457 1.186579 -0.727723
v -0.071457 1.075038 -0.606587
v -0.164438 1.371715 -0.839971
v -0.221904 1.371715 -0.919066
v -0.221904 1.371715 -1.016833
v -0.164438 1.371715 -1.095928
v -0.071457 1.371715 -1.126140
v 0.021525 1.371715 -1.095928
v 0.078991 1.371715 -1.016833
v 0.078991 1.371715 -0.919066
v 0.021525 1.371715 -0.839971
v -0.071457 1.371715 -0.809760
v -0.133444 1.616024 -0.843957
v -0.171755 1.640866 -0.892754
v -0.171755 1.671572 -0.953071
v -0.133444 1.696415 -1.001869
v -0.071457 1.705904 -1.020507
v -0.009469 1.696415 -1.001869
v 0.028842 1.671572 -0.953071
v 0.028842 1.640866 -0.892754
v -0.009469 1.616024 -0.843957
v -0.071457 1.606535 -0.825318
v -0.102450 1.861090 -0.764111
v -0.121606 1.884079 -0.782905
v -0.121606 1.912496 -0.806134
v -0.102450 1.935486 -0.824927
v -0.071457 1.944266 -0.832106
v -0.040463 1.935486 -0.824927
v -0.021307 1.912496 -0.806134
v -0.021307 1.884079 -0.782905
v -0.040463 1.861090 -0.764111
v -0.071457 1.852308 -0.756933
v -0.071457 2.061814 -0.601921
v -0.327953 0.776855 -0.569095
v -0.327953 0.586377 -0.634747
v -0.229980 0.432277 -0.687860
v -0.071457 0.373416 -0.708148
v 0.087067 0.432277 -0.687860
v 0.185040 0.586377 -0.634747
v 0.185040 0.776855 -0.569095

# UV coordinates
vt 0.229022 0.340437
vt 0.219654 0.317710
vt 0.226660 0.333977
vt 0.233567 0.351197
vt 0.223245 0.289619
vt 0.230548 0.312691
vt 0.235765 0.266893
vt 0.240633 0.295471
vt 0.253617 0.258212
vt 0.253617 0.288894
vt 0.271470 0.266893
vt 0.266602 0.295471
vt 0.283990 0.289619
vt 0.276687 0.312691
vt 0.287581 0.317710
vt 0.280575 0.333977
vt 0.278213 0.340437
vt 0.273668 0.351197
vt 0.253617 0.349117
vt 0.253617 0.357774
vt 0.236984 0.347754
vt 0.230555 0.333117
vt 0.237560 0.358804
vt 0.242327 0.365131
vt 0.233516 0.315026
vt 0.239474 0.350984
vt 0.242213 0.300389
vt 0.245592 0.344658
vt 0.253617 0.294799
vt 0.253617 0.342242
vt 0.265022 0.300389
vt 0.261643 0.344658
vt 0.273719 0.315026
vt 0.267761 0.350984
vt 0.276680 0.333117
vt 0.269675 0.358804
vt 0.270251 0.347754
vt 0.264908 0.365131
vt 0.253617 0.353344
vt 0.253617 0.367547
vt 0.242215 0.391120
vt 0.245870 0.391120
vt 0.243295 0.391120
vt 0.247669 0.391120
vt 0.253617 0.391120
vt 0.259566 0.391120
vt 0.263941 0.391120
vt 0.265020 0.391120
vt 0.261365 0.391120
vt 0.245755 0.425392
vt 0.248465 0.422228
vt 0.246249 0.429301
vt 0.249275 0.432465
vt 0.253617 0.433673
vt 0.257960 0.432465
vt 0.260986 0.429301
vt 0.261480 0.425392
vt 0.258770 0.422228
vt 0.253617 0.421020
vt 0.249122 0.456360
vt 0.250768 0.453433
vt 0.249251 0.459978
vt 0.250978 0.462906
vt 0.253617 0.464024
vt 0.256257 0.462906
vt 0.257984 0.459978
vt 0.258113 0.456360
vt 0.256466 0.453433
vt 0.253617 0.452315
vt 0.253617 0.478991
vt 0.143228 0.334998
vt 0.223860 0.315376
vt 0.226629 0.291123
vt 0.237700 0.271501
vt 0.253617 0.264006
vt 0.269535 0.271501
vt 0.280606 0.291123
vt 0.283376 0.315376
vt 0.364007 0.334998
vt 0.143228 0.342493
vt 0.057434 0.340437
vt 0.052889 0.351197
vt 0.059795 0.333977
vt 0.066802 0.317710
vt 0.055908 0.312691
vt 0.063211 0.289619
vt 0.045823 0.295471
vt 0.050691 0.266893
vt 0.032838 0.288894
vt 0.032838 0.258212
vt 0.474397 0.258212
vt 0.474397 0.288894
vt 0.461412 0.295471
vt 0.456544 0.266893
vt 0.451327 0.312691
vt 0.444025 0.289619
vt 0.447440 0.333977
vt 0.440433 0.317710
vt 0.454346 0.351197
vt 0.449801 0.340437
vt 0.474397 0.357774
vt 0.474397 0.349117
vt 0.032838 0.349117
vt 0.032838 0.357774
vt 0.049471 0.347754
vt 0.044129 0.365131
vt 0.048896 0.358804
vt 0.055901 0.333117
vt 0.046982 0.350984
vt 0.052940 0.315026
vt 0.040864 0.344658
vt 0.044243 0.300389
vt 0.032838 0.342242
vt 0.032838 0.294799
vt 0.474397 0.294799
vt 0.474397 0.342242
vt 0.466371 0.344658
vt 0.462992 0.300389
vt 0.460253 0.350984
vt 0.454295 0.315026
vt 0.458339 0.358804
vt 0.451334 0.333117
vt 0.463106 0.365131
vt 0.457763 0.347754
vt 0.474397 0.367547
vt 0.474397 0.353344
vt 0.032838 0.353344
vt 0.032838 0.367547
vt 0.040586 0.391120
vt 0.044241 0.391120
vt 0.043161 0.391120
vt 0.038786 0.391120
vt 0.032838 0.391120
vt 0.474397 0.391120
vt 0.468449 0.391120
vt 0.464074 0.391120
vt 0.462994 0.391120
vt 0.466649 0.391120
vt 0.037991 0.422228
vt 0.040701 0.425392
vt 0.040207 0.429301
vt 0.037181 0.432465
vt 0.032838 0.433673
vt 0.474397 0.433673
vt 0.470054 0.432465
vt 0.467028 0.429301
vt 0.466534 0.425392
vt 0.469244 0.422228
vt 0.474397 0.421020
vt 0.032838 0.421020
vt 0.035687 0.453433
vt 0.037334 0.456360
vt 0.037205 0.459978
vt 0.035477 0.462906
vt 0.032838 0.464024
vt 0.474397 0.464024
vt 0.471758 0.462906
vt 0.470031 0.459978
vt 0.469901 0.456360
vt 0.471548 0.453433
vt 0.474397 0.452315
vt 0.032838 0.452315
vt 0.032838 0.478991
vt 0.474397 0.478991
vt 0.062596 0.315376
vt 0.059826 0.291123
vt 0.048756 0.271501
vt 0.032838 0.264006
vt 0.474397 0.264006
vt 0.458479 0.271501
vt 0.447408 0.291123
vt 0.444639 0.315376
vt 0.805566 0.334998
vt 0.584786 0.342493

# vertex normals
vn -0.704066 0.572132 -0.420662
vn -0.985450 0.148548 -0.082598
vn -0.973365 0.195247 -0.120165
vn -0.672427 0.595910 -0.439013
vn -0.926753 -0.269316 0.261913
vn -0.949779 -0.220814 0.221722
vn -0.574560 -0.608829 0.546999
vn -0.617864 -0.584186 0.526280
vn 0.000000 -0.747474 0.664291
vn 0.000000 -0.747474 0.664291
vn 0.574560 -0.608829 0.546999
vn 0.617863 -0.584186 0.526280
vn 0.926752 -0.269317 0.261913
vn 0.949779 -0.220814 0.221723
vn 0.985450 0.148548 -0.082598
vn 0.973365 0.195247 -0.120165
vn 0.704066 0.572132 -0.420662
vn 0.672427 0.595910 -0.439013
vn 0.000000 0.801461 -0.598048
vn -0.000000 0.801461 -0.598048
vn -0.664759 0.566649 -0.486830
vn -0.967563 0.250557 -0.032296
vn -0.958495 0.258357 -0.120574
vn -0.637695 0.478712 -0.603473
vn -0.891142 -0.052620 0.450663
vn -0.912223 0.029432 0.408636
vn -0.523341 -0.264041 0.810183
vn -0.554411 -0.145216 0.819476
vn -0.000000 -0.338692 0.940897
vn -0.000000 -0.212459 0.977170
vn 0.523341 -0.264041 0.810183
vn 0.554411 -0.145216 0.819476
vn 0.891142 -0.052620 0.450663
vn 0.912223 0.029432 0.408635
vn 0.967563 0.250558 -0.032296
vn 0.958495 0.258357 -0.120575
vn 0.664759 0.566649 -0.486830
vn 0.637695 0.478712 -0.603473
vn 0.000000 0.722378 -0.691499
vn -0.000000 0.580494 -0.814265
vn -0.951770 0.195338 -0.236594
vn -0.607846 0.238018 -0.757542
vn -0.918550 0.150073 0.365710
vn -0.552737 0.117834 0.824983
vn 0.000000 0.106376 0.994326
vn 0.552737 0.117834 0.824983
vn 0.918551 0.150073 0.365709
vn 0.951770 0.195338 -0.236594
vn 0.607846 0.238018 -0.757543
vn -0.000000 0.256333 -0.966589
vn -0.947393 0.105646 -0.302135
vn -0.600598 -0.012696 -0.799450
vn -0.926406 0.251185 0.280498
vn -0.565618 0.371428 0.736286
vn 0.000000 0.418604 0.908169
vn 0.565618 0.371428 0.736286
vn 0.926406 0.251185 0.280498
vn 0.947393 0.105646 -0.302135
vn 0.600598 -0.012696 -0.799450
vn 0.000000 -0.058634 -0.998280
vn -0.949481 0.024357 -0.312878
vn -0.618851 -0.236547 -0.749045
vn -0.928362 0.329042 0.172846
vn -0.579637 0.586670 0.565544
vn -0.000000 0.692358 0.721554
vn 0.579636 0.586670 0.565545
vn 0.928362 0.329042 0.172846
vn 0.949481 0.024357 -0.312879
vn 0.618850 -0.236547 -0.749046
vn 0.000000 -0.345848 -0.938291
vn -0.821327 -0.276404 -0.499022
vn -0.980858 0.123241 -0.150760
vn -0.824617 0.533647 0.187690
vn -0.336754 0.838579 0.428232
vn 0.336753 0.838579 0.428232
vn 0.824617 0.533646 0.187693
vn 0.980858 0.123241 -0.150762
vn 0.821326 -0.276403 -0.499024
vn 0.334296 -0.560571 -0.757632
vn -0.334296 -0.560569 -0.757634
vn -0.942452 0.292401 -0.162126
vn -0.942452 0.292401 -0.162126
vn -0.942452 0.292401 -0.162126
vn -0.106027 0.676578 0.728698
vn -0.106027 0.676578 0.728698
vn -0.106027 0.676578 0.728698
vn -0.159024 -0.326359 -0.931773
vn -0.159024 -0.326359 -0.931773
vn -0.159024 -0.326359 -0.931773
vn -0.159024 -0.326359 -0.931773
vn -0.173789 0.618896 0.766006
vn -0.173789 0.618896 0.766006
vn -0.164846 -0.417982 -0.893374
vn -0.164846 -0.417982 -0.893374
vn -0.164846 -0.417982 -0.893374
vn -0.172043 0.528936 0.831040
vn -0.172043 0.528936 0.831040
vn -0.172043 0.528936 0.831040
vn -0.072100 -0.497466 -0.864482
vn -0.072100 -0.497466 -0.864482
vn -0.072100 -0.497466 -0.864482
vn -0.072100 -0.497466 -0.864482
vn -0.072568 0.460263 0.884812
vn -0.072568 0.460263 0.884812
vn -0.072568 0.460263 0.884812
vn -0.072568 0.460263 0.884812
vn 0.072100 -0.497466 -0.864482
vn 0.072100 -0.497466 -0.864482
vn 0.072100 -0.497466 -0.864482
vn 0.072568 0.460262 0.884812
vn 0.072568 0.460262 0.884812
vn 0.072568 0.460262 0.884812
vn 0.072568 0.460262 0.884812
vn 0.164847 -0.417982 -0.893374
vn 0.164847 -0.417982 -0.893374
vn 0.164847 -0.417982 -0.893374
vn 0.164847 -0.417982 -0.893374
vn 0.172044 0.528935 0.831041
vn 0.172044 0.528935 0.831041
vn 0.172044 0.528935 0.831041
vn 0.159024 -0.326359 -0.931773
vn 0.159024 -0.326359 -0.931773
vn 0.173789 0.618896 0.766006
vn 0.173789 0.618896 0.766006
vn 0.173789 0.618896 0.766006
vn 0.942452 0.292401 -0.162126
vn 0.942453 0.292401 -0.162126
vn 0.942453 0.292401 -0.162126
vn 0.942453 0.292401 -0.162126
vn 0.106029 0.676579 0.728697
vn 0.106029 0.676579 0.728697
vn 0.106029 0.676579 0.728697
vn 0.353454 0.935452 -0.000000
vn 0.353454 0.935452 -0.000000
vn 0.351730 0.930890 -0.098641
vn 0.351730 0.930890 -0.098641
vn 0.031834 0.693344 0.719903
vn 0.031834 0.693344 0.719903
vn 0.031834 0.693344 0.719903
vn -0.353454 0.935452 0.000000
vn -0.353454 0.935452 0.000000
vn -0.351730 0.930890 -0.098641
vn -0.351730 0.930890 -0.098641
vn -0.031834 0.693344 0.719903
vn -0.704065 0.572132 0.420663
vn -0.672427 0.595910 0.439013
vn -0.973365 0.195247 0.120166
vn -0.985450 0.148548 0.082598
vn -0.949779 -0.220814 -0.221722
vn -0.926753 -0.269317 -0.261913
vn -0.617864 -0.584186 -0.526280
vn -0.574560 -0.608829 -0.546999
vn 0.000000 -0.747474 -0.664291
vn 0.000000 -0.747474 -0.664291
vn 0.617863 -0.584187 -0.526280
vn 0.574560 -0.608829 -0.546999
vn 0.949779 -0.220814 -0.221722
vn 0.926753 -0.269317 -0.261913
vn 0.973365 0.195247 0.120165
vn 0.985450 0.148548 0.082598
vn 0.672427 0.595910 0.439013
vn 0.704065 0.572132 0.420662
vn 0.000000 0.801461 0.598047
vn 0.000000 0.801461 0.598047
vn -0.664760 0.566649 0.486830
vn -0.637695 0.478712 0.603473
vn -0.958495 0.258357 0.120574
vn -0.967563 0.250557 0.032297
vn -0.912223 0.029432 -0.408636
vn -0.891142 -0.052620 -0.450663
vn -0.554410 -0.145216 -0.819476
vn -0.523340 -0.264041 -0.810184
vn 0.000000 -0.212459 -0.977170
vn -0.000000 -0.338692 -0.940897
vn 0.554410 -0.145216 -0.819477
vn 0.523340 -0.264042 -0.810184
vn 0.912223 0.029432 -0.408635
vn 0.891142 -0.052620 -0.450663
vn 0.958495 0.258357 0.120574
vn 0.967563 0.250558 0.032297
vn 0.637695 0.478712 0.603473
vn 0.664760 0.566649 0.486830
vn -0.000000 0.580494 0.814265
vn -0.000000 0.722377 0.691499
vn -0.607846 0.238018 0.757542
vn -0.951770 0.195338 0.236594
vn -0.918550 0.150073 -0.365710
vn -0.552736 0.117834 -0.824984
vn 0.000000 0.106376 -0.994326
vn 0.552736 0.117834 -0.824984
vn 0.918551 0.150073 -0.365709
vn 0.951770 0.195338 0.236594
vn 0.607846 0.238018 0.757542
vn -0.000000 0.256334 0.966588
vn -0.600598 -0.012696 0.799450
vn -0.947393 0.105645 0.302135
vn -0.926406 0.251185 -0.280498
vn -0.565617 0.371428 -0.736287
vn 0.000000 0.418605 -0.908169
vn 0.565617 0.371429 -0.736287
vn 0.926406 0.251185 -0.280497
vn 0.947393 0.105646 0.302135
vn 0.600598 -0.012696 0.799450
vn 0.000000 -0.058633 0.998280
vn -0.618851 -0.236547 0.749045
vn -0.949481 0.024356 0.312878
vn -0.928362 0.329042 -0.172846
vn -0.579635 0.586670 -0.565545
vn 0.000000 0.692358 -0.721554
vn 0.579635 0.586670 -0.565545
vn 0.928362 0.329042 -0.172846
vn 0.949481 0.024357 0.312879
vn 0.618851 -0.236547 0.749046
vn -0.000000 -0.345848 0.938290
vn -0.821328 -0.276403 0.499021
vn -0.980859 0.123241 0.150760
vn -0.824616 0.533648 -0.187691
vn -0.336754 0.838579 -0.428232
vn 0.336753 0.838579 -0.428231
vn 0.824616 0.533647 -0.187693
vn 0.980858 0.123241 0.150761
vn 0.821327 -0.276402 0.499024
vn 0.334296 -0.560571 0.757632
vn -0.334296 -0.560570 0.757633
vn -0.942453 0.292401 0.162126
vn -0.942453 0.292401 0.162126
vn -0.942453 0.292401 0.162126
vn -0.106029 0.676578 -0.728697
vn -0.106029 0.676578 -0.728697
vn -0.106029 0.676578 -0.728697
vn -0.159023 -0.326359 0.931773
vn -0.159023 -0.326359 0.931773
vn -0.173794 0.618896 -0.766005
vn -0.173794 0.618896 -0.766005
vn -0.173794 0.618896 -0.766005
vn -0.164846 -0.417981 0.893374
vn -0.164846 -0.417981 0.893374
vn -0.164846 -0.417981 0.893374
vn -0.172046 0.528934 -0.831041
vn -0.172046 0.528934 -0.831041
vn -0.172046 0.528934 -0.831041
vn -0.172046 0.528934 -0.831041
vn -0.072101 -0.497466 0.864482
vn -0.072101 -0.497465 0.864482
vn -0.072101 -0.497466 0.864482
vn -0.072101 -0.497466 0.864482
vn -0.072568 0.460264 -0.884811
vn -0.072568 0.460264 -0.884811
vn -0.072568 0.460264 -0.884811
vn -0.072568 0.460264 -0.884811
vn 0.072101 -0.497465 0.864482
vn 0.072101 -0.497465 0.864482
vn 0.072101 -0.497465 0.864482
vn 0.072101 -0.497465 0.864482
vn 0.072567 0.460263 -0.884812
vn 0.072567 0.460263 -0.884812
vn 0.072567 0.460263 -0.884812
vn 0.164846 -0.417981 0.893374
vn 0.164846 -0.417981 0.893374
vn 0.164846 -0.417981 0.893374
vn 0.164846 -0.417981 0.893374
vn 0.172047 0.528934 -0.831041
vn 0.172047 0.528934 -0.831041
vn 0.172047 0.528934 -0.831041
vn 0.159022 -0.326359 0.931774
vn 0.159022 -0.326359 0.931774
vn 0.173794 0.618896 -0.766005
vn 0.173794 0.618896 -0.766005
vn 0.173794 0.618896 -0.766005
vn 0.173794 0.618896 -0.766005
vn 0.942452 0.292401 0.162126
vn 0.942452 0.292401 0.162126
vn 0.942452 0.292401 0.162126
vn 0.106030 0.676581 -0.728695
vn 0.106030 0.676581 -0.728695
vn 0.106030 0.676581 -0.728695
vn 0.106030 0.676581 -0.728695
vn 0.351730 0.930890 0.098641
vn 0.351730 0.930890 0.098641
vn 0.031833 0.693342 -0.719905
vn 0.031833 0.693342 -0.719905
vn 0.031833 0.693342 -0.719905
vn -0.351730 0.930890 0.098641
vn -0.351730 0.930890 0.098641
vn -0.031832 0.693342 -0.719905
vn -0.031832 0.693342 -0.719905
vn -0.031832 0.693342 -0.719905
vn -0.031832 0.693342 -0.719905

# Mesh
g pCone1
usemtl lambert1
f 4/4/4 1/1/1 2/2/2 3/3/3
f 6/6/6 3/3/3 2/2/2 5/5/5
f 7/7/7 8/8/8 6/6/6 5/5/5
f 9/9/9 10/10/10 8/8/8 7/7/7
f 11/11/11 12/12/12 10/10/10 9/9/9
f 13/13/13 14/14/14 12/12/12 11/11/11
f 13/13/13 15/15/15 16/16/16 14/14/14
f 16/16/16 15/15/15 17/17/17 18/18/18
f 18/18/18 17/17/17 19/19/19 20/20/20
f 20/20/20 19/19/19 1/1/1 4/4/4
f 24/24/24 21/21/21 22/22/22 23/23/23
f 26/26/26 23/23/23 22/22/22 25/25/25
f 27/27/27 28/28/28 26/26/26 25/25/25
f 29/29/29 30/30/30 28/28/28 27/27/27
f 31/31/31 32/32/32 30/30/30 29/29/29
f 33/33/33 34/34/34 32/32/32 31/31/31
f 33/33/33 35/35/35 36/36/36 34/34/34
f 36/36/36 35/35/35 37/37/37 38/38/38
f 38/38/38 37/37/37 39/39/39 40/40/40
f 40/40/40 39/39/39 21/21/21 24/24/24
f 42/42/42 24/24/24 23/23/23 41/41/41
f 43/43/43 41/41/41 23/23/23 26/26/26
f 28/28/28 44/44/44 43/43/43 26/26/26
f 30/30/30 45/45/45 44/44/44 28/28/28
f 32/32/32 46/46/46 45/45/45 30/30/30
f 34/34/34 47/47/47 46/46/46 32/32/32
f 34/34/34 36/36/36 48/48/48 47/47/47
f 48/48/48 36/36/36 38/38/38 49/49/49
f 49/49/49 38/38/38 40/40/40 50/45/50
f 50/45/50 40/40/40 24/24/24 42/42/42
f 52/51/52 42/42/42 41/41/41 51/50/51
f 53/52/53 51/50/51 41/41/41 43/43/43
f 44/44/44 54/53/54 53/52/53 43/43/43
f 45/45/45 55/54/55 54/53/54 44/44/44
f 46/46/46 56/55/56 55/54/55 45/45/45
f 47/47/47 57/56/57 56/55/56 46/46/46
f 47/47/47 48/48/48 58/57/58 57/56/57
f 58/57/58 48/48/48 49/49/49 59/58/59
f 59/58/59 49/49/49 50/45/50 60/59/60
f 60/59/60 50/45/50 42/42/42 52/51/52
f 61/60/61 62/61/62 52/51/52 51/50/51
f 63/62/63 61/60/61 51/50/51 53/52/53
f 64/63/64 63/62/63 53/52/53 54/53/54
f 55/54/55 65/64/65 64/63/64 54/53/54
f 56/55/56 66/65/66 65/64/65 55/54/55
f 56/55/56 57/56/57 67/66/67 66/65/66
f 57/56/57 58/57/58 68/67/68 67/66/67
f 58/57/58 59/58/59 69/68/69 68/67/68
f 69/68/69 59/58/59 60/59/60 70/69/70
f 70/69/70 60/59/60 52/51/52 62/61/62
f 62/61/62 61/60/61 71/70/71
f 61/60/61 63/62/63 71/70/72
f 63/62/63 64/63/64 71/70/73
f 64/63/64 65/64/65 71/70/74
f 65/64/65 66/65/66 71/70/75
f 66/65/66 67/66/67 71/70/76
f 67/66/67 68/67/68 71/70/77
f 68/67/68 69/68/69 71/70/78
f 69/68/69 70/69/70 71/70/79
f 70/69/70 62/61/62 71/70/80
f 1/1/83 72/71/81 73/72/82 2/2/82
f 21/21/84 4/4/85 3/3/86 22/22/84
f 73/72/87 74/73/88 5/5/89 2/2/90
f 25/25/91 22/22/91 3/3/91 6/6/92
f 75/74/94 7/7/93 5/5/95 74/73/93
f 8/8/98 27/27/96 25/25/97 6/6/96
f 76/75/100 9/9/101 7/7/102 75/74/99
f 10/10/106 29/29/103 27/27/104 8/8/105
f 77/76/107 11/11/108 9/9/109 76/75/107
f 12/12/113 31/31/110 29/29/111 10/10/112
f 78/77/115 13/13/116 11/11/117 77/76/114
f 14/14/120 33/33/118 31/31/118 12/12/119
f 15/15/122 13/13/121 78/77/121 79/78/121
f 14/14/124 16/16/125 35/35/123 33/33/123
f 15/15/129 79/78/126 80/79/127 17/17/128
f 35/35/131 16/16/132 18/18/131 37/37/130
f 17/17/136 80/79/133 81/80/134 19/19/135
f 37/37/138 18/18/139 20/20/139 39/39/137
f 19/19/143 81/80/140 72/71/141 1/1/142
f 39/39/144 20/20/144 4/4/144 21/21/144
f 82/81/145 83/82/146 84/83/147 85/84/148
f 84/83/147 86/85/149 87/86/150 85/84/148
f 88/87/151 89/88/152 87/86/150 86/85/149
f 90/89/153 91/90/154 89/88/152 88/87/151
f 92/93/155 93/94/156 91/91/154 90/92/153
f 94/95/157 95/96/158 93/94/156 92/93/155
f 97/98/160 95/96/158 94/95/157 96/97/159
f 97/98/160 96/97/159 98/99/161 99/100/162
f 99/100/162 98/99/161 100/101/163 101/102/164
f 101/103/164 100/104/163 83/82/146 82/81/145
f 102/105/165 103/106/166 104/107/167 105/108/168
f 104/107/167 106/109/169 107/110/170 105/108/168
f 108/111/171 109/112/172 107/110/170 106/109/169
f 110/113/173 111/114/174 109/112/172 108/111/171
f 112/117/175 113/118/176 111/115/174 110/116/173
f 114/119/177 115/120/178 113/118/176 112/117/175
f 117/122/180 115/120/178 114/119/177 116/121/179
f 117/122/180 116/121/179 118/123/181 119/124/182
f 119/124/182 118/123/181 120/125/183 121/126/184
f 121/127/184 120/128/183 103/106/166 102/105/165
f 103/106/166 122/129/185 123/130/186 104/107/167
f 123/130/186 124/131/187 106/109/169 104/107/167
f 125/132/188 108/111/171 106/109/169 124/131/187
f 126/133/189 110/113/173 108/111/171 125/132/188
f 127/135/190 112/117/175 110/116/173 126/134/189
f 128/136/191 114/119/177 112/117/175 127/135/190
f 116/121/179 114/119/177 128/136/191 129/137/192
f 116/121/179 129/137/192 130/138/193 118/123/181
f 118/123/181 130/138/193 131/134/194 120/125/183
f 120/128/183 131/133/194 122/129/185 103/106/166
f 122/129/185 132/139/195 133/140/196 123/130/186
f 133/140/196 134/141/197 124/131/187 123/130/186
f 135/142/198 125/132/188 124/131/187 134/141/197
f 136/143/199 126/133/189 125/132/188 135/142/198
f 137/145/200 127/135/190 126/134/189 136/144/199
f 138/146/201 128/136/191 127/135/190 137/145/200
f 129/137/192 128/136/191 138/146/201 139/147/202
f 129/137/192 139/147/202 140/148/203 130/138/193
f 130/138/193 140/148/203 141/149/204 131/134/194
f 131/133/194 141/150/204 132/139/195 122/129/185
f 142/151/205 143/152/206 133/140/196 132/139/195
f 143/152/206 144/153/207 134/141/197 133/140/196
f 144/153/207 145/154/208 135/142/198 134/141/197
f 146/155/209 136/143/199 135/142/198 145/154/208
f 147/157/210 137/145/200 136/144/199 146/156/209
f 138/146/201 137/145/200 147/157/210 148/158/211
f 139/147/202 138/146/201 148/158/211 149/159/212
f 140/148/203 139/147/202 149/159/212 150/160/213
f 140/148/203 150/160/213 151/161/214 141/149/204
f 141/150/204 151/162/214 142/151/205 132/139/195
f 142/151/205 152/163/215 143/152/206
f 143/152/206 152/163/216 144/153/207
f 144/153/207 152/163/217 145/154/208
f 145/154/208 152/163/218 146/155/209
f 146/156/209 152/164/219 147/157/210
f 147/157/210 152/164/220 148/158/211
f 148/158/211 152/164/221 149/159/212
f 149/159/212 152/164/222 150/160/213
f 150/160/213 152/164/223 151/161/214
f 151/162/214 152/163/224 142/151/205
f 72/71/225 82/81/226 85/84/225 153/165/227
f 83/82/229 102/105/230 105/108/228 84/83/228
f 154/166/232 153/165/231 85/84/231 87/86/231
f 105/108/235 107/110/233 86/85/233 84/83/234
f 89/88/238 155/167/237 154/166/236 87/86/237
f 109/112/239 88/87/240 86/85/241 107/110/242
f 91/90/245 156/168/246 155/167/243 89/88/244
f 111/114/247 90/89/248 88/87/249 109/112/250
f 93/94/253 157/170/254 156/169/251 91/91/252
f 113/118/255 92/93/256 90/92/256 111/115/257
f 95/96/260 158/171/261 157/170/258 93/94/259
f 115/120/262 94/95/263 92/93/264 113/118/264
f 95/96/266 97/98/266 159/172/266 158/171/265
f 96/97/268 94/95/269 115/120/270 117/122/267
f 159/172/271 97/98/272 99/100/271 80/79/273
f 96/97/276 117/122/277 119/124/274 98/99/275
f 80/173/133 99/100/278 101/102/279 81/174/134
f 98/99/282 119/124/281 121/126/280 100/101/281
f 81/80/140 101/103/283 82/81/284 72/71/141
f 100/104/287 121/127/288 102/105/285 83/82/286
